<?xml version="1.0" encoding="UTF-8"?>
<svg id="Camada_1" xmlns="http://www.w3.org/2000/svg" version="1.1" xmlns:xlink="http://www.w3.org/1999/xlink" viewBox="0 0 1080 600">
  <!-- Generator: Adobe Illustrator 29.8.2, SVG Export Plug-In . SVG Version: 2.1.1 Build 3)  -->
  <defs>
    <style>
      .st0 {
        fill: url(#Gradiente_sem_nome_1057);
      }

      .st1 {
        fill: url(#Gradiente_sem_nome_1059);
      }

      .st2 {
        fill: url(#Gradiente_sem_nome_10510);
      }

      .st3 {
        fill: url(#Gradiente_sem_nome_105);
      }

      .st4 {
        fill: url(#Gradiente_sem_nome_1051);
      }

      .st5 {
        fill: url(#Gradiente_sem_nome_1054);
      }

      .st6 {
        fill: url(#Gradiente_sem_nome_1052);
      }

      .st7 {
        fill: url(#Gradiente_sem_nome_1053);
      }

      .st8 {
        fill: #1c2f36;
      }

      .st9 {
        fill: url(#Gradiente_sem_nome_1058);
      }

      .st10 {
        fill: url(#Gradiente_sem_nome_1056);
      }

      .st11 {
        fill: url(#Gradiente_sem_nome_1055);
      }

      .st12 {
        fill: url(#Gradiente_sem_nome_107);
      }

      .st13 {
        fill: url(#Gradiente_sem_nome_1071);
      }
    </style>
    <linearGradient id="Gradiente_sem_nome_107" data-name="Gradiente sem nome 107" x1="815.45" y1="467.93" x2="931.97" y2="467.93" gradientUnits="userSpaceOnUse">
      <stop offset="0" stop-color="#1c2f36"/>
      <stop offset=".6" stop-color="#c9c2af"/>
      <stop offset="1" stop-color="#b6b5b6"/>
    </linearGradient>
    <linearGradient id="Gradiente_sem_nome_1071" data-name="Gradiente sem nome 107" x1="620.99" y1="467.8" x2="774.86" y2="467.8" xlink:href="#Gradiente_sem_nome_107"/>
    <linearGradient id="Gradiente_sem_nome_105" data-name="Gradiente sem nome 105" x1="401.66" y1="197.43" x2="633.91" y2="197.43" gradientUnits="userSpaceOnUse">
      <stop offset="0" stop-color="#1d1d1b"/>
      <stop offset=".18" stop-color="#1c2f36"/>
      <stop offset=".67" stop-color="#c9c2af"/>
      <stop offset="1" stop-color="#b6b5b6"/>
    </linearGradient>
    <linearGradient id="Gradiente_sem_nome_1051" data-name="Gradiente sem nome 105" x1="422.85" y1="210.31" x2="626.74" y2="210.31" xlink:href="#Gradiente_sem_nome_105"/>
    <linearGradient id="Gradiente_sem_nome_1052" data-name="Gradiente sem nome 105" x1="412.36" y1="204.44" x2="604.65" y2="204.44" xlink:href="#Gradiente_sem_nome_105"/>
    <linearGradient id="Gradiente_sem_nome_1053" data-name="Gradiente sem nome 105" x1="475.32" y1="261.02" x2="644.36" y2="261.02" xlink:href="#Gradiente_sem_nome_105"/>
    <linearGradient id="Gradiente_sem_nome_1054" data-name="Gradiente sem nome 105" x1="495.29" y1="256.27" x2="633.99" y2="256.27" xlink:href="#Gradiente_sem_nome_105"/>
    <linearGradient id="Gradiente_sem_nome_1055" data-name="Gradiente sem nome 105" x1="522.57" y1="237.95" x2="622.41" y2="237.95" xlink:href="#Gradiente_sem_nome_105"/>
    <linearGradient id="Gradiente_sem_nome_1056" data-name="Gradiente sem nome 105" x1="548.88" y1="225.71" x2="610.62" y2="225.71" xlink:href="#Gradiente_sem_nome_105"/>
    <linearGradient id="Gradiente_sem_nome_1057" data-name="Gradiente sem nome 105" x1="573.9" y1="222.03" x2="598.27" y2="222.03" xlink:href="#Gradiente_sem_nome_105"/>
    <linearGradient id="Gradiente_sem_nome_1058" data-name="Gradiente sem nome 105" x1="461.38" y1="253.21" x2="627.55" y2="253.21" xlink:href="#Gradiente_sem_nome_105"/>
    <linearGradient id="Gradiente_sem_nome_1059" data-name="Gradiente sem nome 105" x1="447.9" y1="227.29" x2="640.87" y2="227.29" xlink:href="#Gradiente_sem_nome_105"/>
    <linearGradient id="Gradiente_sem_nome_10510" data-name="Gradiente sem nome 105" x1="435.02" y1="216.59" x2="656.99" y2="216.59" xlink:href="#Gradiente_sem_nome_105"/>
  </defs>
  <g>
    <path class="st12" d="M927.75,491.14c-2.8-4.82-6.85-8.92-12.05-12.18-5.15-3.23-11.5-5.95-18.86-8.1-7.32-2.13-15.59-4.14-24.57-5.97-8.98-1.83-16.78-3.71-23.18-5.6-6.38-1.87-11.66-4.15-15.72-6.78-3.99-2.58-6.98-5.8-8.89-9.55-1.92-3.76-2.89-8.54-2.89-14.19s.98-11.12,2.92-15.74c1.92-4.59,5.01-8.61,9.16-11.95,4.17-3.35,9.59-5.96,16.1-7.76,6.54-1.8,14.53-2.72,23.73-2.72s17.75,1.29,24.58,3.84c6.8,2.54,13.44,7.33,19.74,14.23l.57.62,4.03-4.35-.48-.52c-6.46-7.08-13.69-12.19-21.48-15.2-7.77-3-16.99-4.52-27.42-4.52-8.73,0-16.7.97-23.68,2.89-7.01,1.93-13.11,4.82-18.13,8.6-5.04,3.8-8.97,8.51-11.68,14.02-2.71,5.5-4.09,11.9-4.09,19.01s1.26,12.61,3.76,17.2c2.49,4.6,6.24,8.47,11.15,11.51,4.86,3.01,10.86,5.5,17.84,7.42,6.91,1.9,14.99,3.72,23.99,5.4,9.23,1.81,17.37,3.81,24.2,5.94,6.76,2.1,12.39,4.69,16.74,7.68,4.3,2.97,7.53,6.53,9.6,10.6,2.07,4.08,3.12,9.16,3.12,15.11,0,11.88-4.62,20.87-13.73,26.72-9.21,5.92-21.98,8.93-37.95,8.93-12.22,0-23.26-1.91-32.82-5.67l-1.04-.42-.26.78c-.37,1.13-.83,2.35-1.4,3.74l-.3.72.73.29c10.13,3.98,21.86,6,34.84,6,17.94,0,32.23-3.59,42.47-10.67,10.33-7.14,15.56-17.6,15.56-31.1,0-7.28-1.42-13.42-4.23-18.25Z"/>
    <path class="st13" d="M697.92,551.43c-10.59,0-20.56-2.23-29.9-6.7-9.34-4.46-17.5-10.48-24.45-18.06-6.96-7.58-12.46-16.46-16.51-26.63-4.05-10.17-6.07-20.87-6.07-32.08s2.02-22.17,6.07-32.24c4.05-10.07,9.6-18.95,16.67-26.63,7.05-7.68,15.26-13.75,24.6-18.22,9.35-4.46,19.21-6.7,29.59-6.7s20.25,2.23,29.59,6.7c9.34,4.47,17.49,10.54,24.45,18.22,6.95,7.68,12.51,16.56,16.66,26.63,4.15,10.07,6.23,20.82,6.23,32.24s-2.02,21.91-6.07,32.08c-4.05,10.18-9.55,19.06-16.51,26.63-6.96,7.58-15.11,13.6-24.45,18.06-9.34,4.46-19.31,6.7-29.9,6.7ZM627.22,468.58c0,10.38,1.87,20.25,5.61,29.59,3.74,9.35,8.77,17.5,15.11,24.45,6.33,6.96,13.75,12.46,22.27,16.51,8.51,4.05,17.65,6.07,27.41,6.07s18.63-2.08,27.25-6.23c8.61-4.15,16.2-9.76,22.74-16.82,6.54-7.06,11.68-15.26,15.42-24.61,3.74-9.34,5.61-19.31,5.61-29.9s-1.87-20.25-5.61-29.59c-3.74-9.35-8.83-17.54-15.26-24.61-6.44-7.06-13.97-12.66-22.58-16.82-8.62-4.15-17.71-6.23-27.25-6.23s-18.64,2.08-27.25,6.23c-8.62,4.16-16.15,9.81-22.58,16.97-6.44,7.17-11.53,15.47-15.26,24.92-3.74,9.45-5.61,19.47-5.61,30.06Z"/>
    <path class="st8" d="M148.03,466.28c0-9.9,1.74-19.71,5.22-29.46,3.48-9.74,8.5-18.51,15.08-26.32,6.57-7.81,14.69-14.15,24.35-19.02,9.66-4.87,20.68-7.31,33.05-7.31,14.69,0,27.14,3.36,37.34,10.09,10.21,6.73,17.78,15.35,22.73,25.86l-4.41,1.39c-3.25-6.03-7-11.13-11.25-15.31-4.25-4.18-8.89-7.54-13.92-10.09-5.03-2.55-10.21-4.41-15.54-5.56-5.33-1.16-10.63-1.74-15.89-1.74-11.45,0-21.65,2.28-30.62,6.84-8.97,4.56-16.55,10.55-22.73,17.97-6.19,7.42-10.87,15.81-14.03,25.17-3.17,9.36-4.75,18.75-4.75,28.18,0,10.51,1.89,20.56,5.68,30.15,3.79,9.59,8.97,18.05,15.54,25.4,6.57,7.35,14.26,13.18,23.08,17.51,8.81,4.33,18.32,6.5,28.53,6.5,5.41,0,10.98-.7,16.7-2.09,5.72-1.39,11.25-3.48,16.58-6.26,5.34-2.78,10.28-6.38,14.84-10.79,4.56-4.41,8.47-9.62,11.71-15.66l4.41,1.16c-2.78,6.19-6.57,11.68-11.37,16.47-4.79,4.8-10.13,8.81-16,12.06-5.88,3.25-12.1,5.68-18.67,7.31-6.57,1.63-12.95,2.44-19.13,2.44-11.13,0-21.42-2.47-30.85-7.42-9.43-4.95-17.51-11.4-24.24-19.37-6.73-7.96-11.99-17.01-15.77-27.14-3.79-10.12-5.68-20.45-5.68-30.96Z"/>
    <path class="st8" d="M373.95,551.16h33.39v-3.94h-29.94c-12.14,0-22.01-3.65-29.35-12.23-7.23-8.44-10.89-19.29-10.89-32.24v-118.59h-4.72v119.08c0,14.92,4.28,26.76,12.72,35.2,8.44,8.44,18.12,12.72,28.79,12.72Z"/>
    <path class="st8" d="M514.54,551.59c18.54,0,33.6-6.04,46.04-18.48,12.26-12.26,18.48-28.36,18.48-47.86v-100.55h-4.55v98.73c0,18.63-5.82,34.16-17.3,46.16-11.54,12.06-25.89,17.04-42.66,17.04s-31.13-4.98-42.66-17.04c-11.48-11.99-17.3-27.52-17.3-46.16v-98.73h-4.55v100.55c0,19.74,6.16,35.9,18.3,48.04,12.14,12.14,27.69,18.3,46.22,18.3Z"/>
  </g>
  <g>
    <path class="st3" d="M476.75,345.85h0c-.4.62-1.24.77-1.84.35-2.84-1.97-5.66-3.86-8.36-5.89-26.91-20.2-45.68-46.34-56.48-78.16-6.09-17.93-8.9-36.42-8.33-55.37,1.16-38.38,14.14-72.33,39.04-101.5,24.33-28.5,55.19-46.29,91.89-53.63,33.97-6.8,66.86-2.79,98.55,11.2,1.37.61,2.48,1.41,2.67,3.02.33,2.81-2.28,4.66-4.97,3.52-3.34-1.41-6.64-2.92-10.02-4.21-15.41-5.91-31.35-9.4-47.86-10.18-34.78-1.64-66.77,7.13-95.68,26.48-29.33,19.63-49.55,46.45-61.18,79.74-6.57,18.81-9.37,38.21-8.36,58.08,1.79,35.14,13.84,66.41,36.09,93.7,9.74,11.95,21.12,22.11,33.92,30.69.05.04.28.19.56.37.6.4.76,1.21.37,1.81Z"/>
    <path class="st4" d="M626.62,333.8h0c.31.72,0,1.55-.7,1.89-2.06.99-4.13,2.02-6.25,2.94-16.84,7.34-34.42,11.48-52.79,12.22-14.29.58-28.36-.98-42.06-4.93-17.92-5.17-34.34-13.47-48.89-25.23-26.08-21.08-42.82-47.99-50.05-80.76-2.18-9.88-3.09-19.93-3.03-30.08.13-20.83,4.84-41.45,13.97-60.18,13.69-28.11,34.53-49.45,62.24-64.07,14.06-7.42,29.02-12.16,44.74-14.47,8.73-1.29,17.51-1.7,26.32-1.36,2.14.08,3.58,1.57,3.51,3.58-.07,1.96-1.51,3.23-3.66,3.25-5.25.05-10.51-.09-15.75.2-17.96.99-35.05,5.71-51.29,13.71-13.85,6.82-26.43,16.05-37.16,27.15-19.39,20.06-31.68,43.89-36.4,71.52-4.9,28.72-1.06,56.35,11.77,82.55,13.52,27.6,34.12,48.36,61.41,62.41,12.24,6.3,25.47,10.59,39.1,12.51,28.46,4.02,55.43-.43,81.03-12.62.71-.34,1.32-.64,1.95-.95.75-.37,1.65-.04,1.98.72Z"/>
    <path class="st6" d="M505.75,349.03h0c-.27.64-1.02.95-1.66.68-.26-.11-.48-.2-.56-.23-16.84-7.23-31.88-17.2-45.06-29.98-15.49-15.02-27.26-32.55-35.32-52.56-6.36-15.8-10.09-32.21-10.69-49.25-1.49-42.5,12.05-79.56,41.06-110.66,21.8-23.37,48.67-38.07,79.91-44.75,10.85-2.32,21.84-3.35,32.93-3.19,11.97.18,23.77,1.7,35.38,4.68,2.17.56,3.27,2.26,2.79,4.3-.46,1.92-2.38,2.92-4.56,2.35-12.37-3.25-24.95-4.9-37.73-4.82-21.63.13-42.23,4.85-61.79,14.1-15.61,7.38-29.53,17.19-41.65,29.49-19.47,19.76-32.27,43.22-38.57,70.22-2.88,12.33-4.12,24.84-3.68,37.49.72,20.52,5.43,40.1,14.37,58.6,14.03,29.03,35.17,51.34,63.56,66.7,3.28,1.78,6.71,3.28,10.07,4.9.06.03.29.14.57.27.62.29.89,1.02.63,1.65Z"/>
    <path class="st7" d="M644.36,223.9c-.18,2.01-.28,4.03-.55,6.03-1.96,14.64-7.49,27.88-16.66,39.37-11.27,14.12-25.7,23.79-43.29,28.36-16.02,4.17-32.07,4.39-48.02-.49-12.96-3.97-24.14-10.99-34.02-20.18-14.88-13.84-23.37-30.98-26.26-51-.12-.82-.24-1.66-.24-2.48,0-1.25.74-2.08,1.9-2.25,1.14-.17,2.23.39,2.52,1.56.38,1.53.55,3.12.8,4.68,3.98,25.32,16.68,44.93,38.44,58.57,9.84,6.17,20.46,10.42,32.01,11.77,24.88,2.91,47.22-3.17,66.43-19.61,14.56-12.46,22.54-28.53,25.63-47.22.35-2.09,1.08-6.85,1.14-7.13.16.03,0,0,.16.03Z"/>
    <path class="st5" d="M633.99,223.61c-.48,2.7-.78,5.44-1.45,8.08-7.02,27.44-23.88,46.09-51.05,54-26.9,7.83-51.01,1.21-71.71-17.62-5.72-5.2-10.25-11.4-13.94-18.2-.34-.62-.6-1.41-.54-2.1.09-1.05.88-1.7,1.93-1.84,1.07-.14,1.81.42,2.34,1.33,1.67,2.83,3.19,5.78,5.09,8.46,11.66,16.45,27.5,26.4,47.4,29.45,37.95,5.8,73.39-19.32,80.84-57.03.3-1.51.56-3.02.84-4.53h.24Z"/>
    <path class="st11" d="M619.96,199.05c1.48,4.68,2.26,9.51,2.41,14.44.46,15.1-3.88,28.66-13.37,40.42-10.07,12.47-23.16,19.94-39.02,22.25-16.65,2.42-31.84-1.5-45.55-11.22-.2-.14-.41-.29-.61-.44-1.33-1-1.62-2.31-.78-3.44.86-1.14,2.17-1.2,3.5-.16,22.99,17.93,55.13,16.57,76.46-3.41,10.74-10.05,16.81-22.54,18.36-37.19.62-5.82.61-12.24-1.41-21.25Z"/>
    <path class="st10" d="M600.33,186.45c4.2,5.04,7.01,10.81,8.69,17.12,5.94,22.31-5.02,45.97-26.06,56.27-10.04,4.91-20.57,6.21-31.54,4.26-.29-.05-.57-.12-.85-.21-1.3-.41-1.95-1.57-1.59-2.83.33-1.16,1.5-1.86,2.75-1.55,4.62,1.11,9.3,1.51,14.03,1.17,11.01-.78,20.61-4.93,28.65-12.48,9.42-8.86,14.23-19.86,14.71-32.76.37-9.94-2.37-19.01-7.71-27.35-.35-.55-.71-1.09-1.06-1.64Z"/>
    <path class="st0" d="M591.04,194.45c3.94,4.91,6.26,10.54,6.97,16.73,1.85,16.06-6.24,30.75-20.73,37.9-.26.13-.52.26-.8.36-1.04.41-2.03.06-2.43-.83-.41-.91,0-1.83,1.02-2.36,2.07-1.07,4.24-1.98,6.18-3.26,15.89-10.5,20.4-31.44,10.32-47.63-.19-.3-.36-.62-.54-.93Z"/>
    <path class="st9" d="M627.25,285.78c-.31-.25-.76-.23-1.05.04-17.8,16.87-41.57,26.43-66.22,26.43-13.88,0-27.08-2.96-39.01-8.27-2.04-.94-4.05-1.93-6.02-3.03-37.29-19.62-57.27-65.19-47.65-106.13.25-1.04-.43-2.08-1.49-2.24h0c-.95-.15-1.87.47-2.07,1.41-3.04,13.81-3.15,28.27-.21,42.06,6.85,31.31,26.69,54.32,51.46,66.82,13.48,7.01,28.78,10.99,44.99,10.99,25.06,0,49.22-9.71,67.32-26.86.35-.33.33-.9-.05-1.21h0Z"/>
    <path class="st1" d="M640.52,293.78c-.36-.29-.88-.27-1.22.05-20.67,19.59-48.27,30.69-76.9,30.69-16.12,0-31.44-3.44-45.3-9.61-2.36-1.09-4.7-2.25-7-3.52-43.99-23.14-67.63-76.21-55.18-124.31.52-1.95,1.01-3.9,1.56-5.84,0-.02,0-.03.01-.04.4-1.14,2.08-6.15,2.45-7.15.83-2,2.1-4.93,2.94-6.95,0-.02.02-.04.03-.06.99-1.93,2.41-4.78,3.4-6.7,0-.02.02-.03.03-.05.57-.93,3.27-5.5,3.87-6.48.58-.86,3.75-5.36,4.3-6.19.01-.02.02-.03.04-.05,1.35-1.71,3.34-4.14,4.69-5.85.01-.02.03-.03.04-.05,1.47-1.59,3.62-3.95,5.08-5.53.01-.01.02-.02.03-.03.45-.43,1.82-1.73,3.1-2.93.2-.19.4-.37.59-.55.99-.94,1.05-2.49.14-3.51l-.05-.06c-.95-1.06-2.6-1.12-3.62-.13-.32.31-.65.63-.98.95-1.19,1.15-2.37,2.3-2.8,2.73-1.51,1.66-3.72,4.19-5.25,5.87-.01.02-.03.03-.04.05-1.39,1.8-3.44,4.4-4.82,6.2,0,0-.01.02-.02.03-.58.85-3.73,5.55-4.39,6.51-.01.02-.02.03-.03.05l-3.15,5.44c-13.25,23.86-17.38,52.64-11.7,79.28,7.95,36.36,31,63.08,59.76,77.59,15.65,8.15,33.42,12.76,52.25,12.76,29.1,0,57.16-11.28,78.17-31.19.41-.39.38-1.05-.06-1.4h0Z"/>
    <path class="st2" d="M656.65,296.38c-.42-.39-1.07-.36-1.46.06-23.65,25.43-57.03,40-91.76,40-18.07,0-35.26-3.85-50.8-10.77-2.65-1.22-5.27-2.52-7.84-3.95-49.33-25.95-75.84-85.46-61.88-139.4.59-2.18,1.13-4.37,1.75-6.54,0-.02.01-.04.02-.06.46-1.29,2.33-6.89,2.75-8.01.93-2.24,2.36-5.53,3.3-7.79.01-.02.02-.05.03-.07,1.11-2.17,2.7-5.35,3.81-7.51.01-.02.02-.04.03-.06.64-1.05,3.66-6.17,4.34-7.26.65-.97,4.2-6,4.82-6.94.02-.02.03-.04.05-.06,1.51-1.91,3.74-4.63,5.25-6.56.02-.02.03-.04.05-.06,1.65-1.78,4.06-4.43,5.69-6.19.01-.02.02-.03.04-.04.91-.87,5.09-4.8,6.11-5.79.02-.02.03-.03.05-.04,8.49-7.32,18.02-13.78,28.07-18.7,1.59-.75,2.25-2.69,1.45-4.26-.79-1.54-2.67-2.15-4.21-1.36-10.5,5.32-20.37,12.22-29.16,20.03-.02.01-.03.03-.04.04-1.07,1.06-5.36,5.2-6.33,6.17-1.7,1.86-4.17,4.7-5.88,6.58-.02.02-.03.04-.05.06-1.56,2.02-3.86,4.92-5.4,6.94-.01.02-.02.03-.03.04-.66.97-4.18,6.22-4.91,7.3-.01.02-.02.04-.04.06l-3.53,6.1c-14.85,26.75-19.49,59.03-13.12,88.9,8.92,40.77,34.76,70.74,67.02,87.01,17.55,9.13,37.48,14.31,58.59,14.31,35.31,0,69.25-14.8,93.29-40.66.4-.43.37-1.1-.06-1.49h0Z"/>
  </g>
</svg>