<?xml version="1.0" encoding="UTF-8"?>
<svg id="Camada_1" xmlns="http://www.w3.org/2000/svg" version="1.1" viewBox="0 0 1080 600">
  <!-- Generator: Adobe Illustrator 29.8.2, SVG Export Plug-In . SVG Version: 2.1.1 Build 3)  -->
  <defs>
    <style>
      .st0 {
        fill: #1d1d1b;
      }
    </style>
  </defs>
  <g>
    <path class="st0" d="M938.05,496.22c-2.87-4.95-7.04-9.15-12.37-12.5-5.29-3.31-11.8-6.11-19.36-8.32-7.51-2.19-16-4.25-25.22-6.13-9.22-1.88-17.23-3.81-23.8-5.75-6.54-1.92-11.97-4.26-16.13-6.96-4.09-2.65-7.17-5.95-9.13-9.81-1.97-3.86-2.97-8.77-2.97-14.57s1.01-11.42,2.99-16.15c1.98-4.71,5.14-8.84,9.41-12.27,4.28-3.44,9.85-6.12,16.53-7.96,6.72-1.85,14.91-2.79,24.36-2.79s18.22,1.33,25.23,3.95c6.98,2.61,13.8,7.53,20.27,14.61l.58.64,4.14-4.46-.49-.54c-6.63-7.26-14.05-12.51-22.05-15.61-7.97-3.08-17.44-4.64-28.15-4.64-8.96,0-17.14,1-24.31,2.97-7.2,1.98-13.46,4.95-18.61,8.83-5.17,3.9-9.21,8.74-11.99,14.39-2.78,5.65-4.2,12.21-4.2,19.52s1.3,12.94,3.86,17.66c2.56,4.72,6.41,8.7,11.45,11.82,4.99,3.09,11.15,5.65,18.31,7.61,7.09,1.95,15.38,3.82,24.63,5.54,9.47,1.86,17.83,3.91,24.84,6.09,6.94,2.16,12.72,4.81,17.19,7.89,4.41,3.05,7.73,6.71,9.85,10.88,2.13,4.18,3.21,9.4,3.21,15.51,0,12.2-4.74,21.42-14.1,27.43-9.46,6.08-22.57,9.16-38.96,9.16-12.54,0-23.88-1.96-33.69-5.83l-1.07-.44-.26.8c-.38,1.16-.85,2.42-1.43,3.84l-.3.74.75.29c10.4,4.09,22.44,6.16,35.77,6.16,18.42,0,33.09-3.69,43.6-10.96,10.6-7.33,15.98-18.07,15.98-31.92,0-7.47-1.46-13.78-4.34-18.74Z"/>
    <path class="st0" d="M702.12,558.11c-10.87,0-21.1-2.29-30.7-6.87-9.59-4.58-17.96-10.76-25.1-18.54-7.15-7.78-12.79-16.89-16.95-27.34-4.16-10.44-6.24-21.42-6.24-32.93s2.08-22.75,6.24-33.09c4.16-10.33,9.86-19.45,17.11-27.34,7.24-7.88,15.67-14.12,25.26-18.71,9.59-4.58,19.72-6.87,30.38-6.87s20.78,2.29,30.38,6.87c9.59,4.59,17.96,10.82,25.1,18.71,7.14,7.88,12.84,17,17.11,27.34,4.26,10.34,6.4,21.37,6.4,33.09s-2.08,22.49-6.24,32.93c-4.16,10.45-9.81,19.56-16.95,27.34-7.15,7.78-15.51,13.96-25.1,18.54-9.59,4.58-19.82,6.87-30.69,6.87ZM629.54,473.06c0,10.66,1.92,20.79,5.76,30.38,3.84,9.59,9,17.96,15.51,25.1,6.5,7.14,14.12,12.79,22.86,16.95,8.74,4.16,18.12,6.24,28.14,6.24s19.13-2.13,27.98-6.4c8.84-4.26,16.63-10.02,23.34-17.27,6.71-7.25,11.99-15.67,15.83-25.26,3.84-9.59,5.76-19.82,5.76-30.69s-1.92-20.79-5.76-30.38c-3.84-9.59-9.06-18.01-15.67-25.26-6.61-7.25-14.34-13-23.18-17.27-8.85-4.26-18.18-6.4-27.98-6.4s-19.13,2.14-27.98,6.4c-8.85,4.27-16.58,10.07-23.18,17.42-6.61,7.36-11.83,15.89-15.67,25.58-3.84,9.71-5.76,19.98-5.76,30.86Z"/>
    <path class="st0" d="M137.61,470.7c0-10.16,1.79-20.24,5.36-30.24,3.57-10,8.73-19.01,15.48-27.02,6.75-8.02,15.08-14.53,25-19.52,9.92-5,21.23-7.5,33.93-7.5,15.08,0,27.86,3.45,38.33,10.36,10.48,6.91,18.25,15.75,23.33,26.55l-4.52,1.43c-3.33-6.19-7.18-11.43-11.55-15.71-4.37-4.29-9.13-7.74-14.29-10.36-5.16-2.62-10.48-4.52-15.95-5.71-5.48-1.19-10.92-1.79-16.31-1.79-11.75,0-22.23,2.34-31.43,7.02-9.21,4.68-16.99,10.84-23.33,18.45-6.35,7.62-11.15,16.23-14.41,25.83-3.25,9.61-4.88,19.25-4.88,28.93,0,10.79,1.94,21.11,5.83,30.95,3.89,9.84,9.21,18.53,15.95,26.07,6.75,7.54,14.64,13.53,23.69,17.98,9.05,4.45,18.81,6.67,29.29,6.67,5.55,0,11.27-.71,17.14-2.15,5.87-1.43,11.55-3.57,17.02-6.43,5.48-2.86,10.56-6.55,15.24-11.07,4.68-4.52,8.69-9.88,12.03-16.07l4.52,1.19c-2.86,6.35-6.75,11.99-11.67,16.91-4.92,4.92-10.4,9.05-16.43,12.38-6.03,3.33-12.42,5.83-19.17,7.5-6.75,1.67-13.29,2.5-19.64,2.5-11.43,0-21.99-2.54-31.67-7.62-9.68-5.08-17.98-11.7-24.88-19.88-6.91-8.18-12.3-17.46-16.19-27.86-3.89-10.39-5.83-20.99-5.83-31.78Z"/>
    <path class="st0" d="M369.54,557.84h34.27v-4.04h-30.73c-12.46,0-22.6-3.75-30.13-12.55-7.42-8.67-11.18-19.81-11.18-33.1v-121.74h-4.84v122.24c0,15.31,4.39,27.47,13.06,36.13,8.66,8.66,18.61,13.06,29.56,13.06Z"/>
    <path class="st0" d="M513.87,558.27c19.04,0,34.49-6.2,47.26-18.97,12.59-12.59,18.97-29.12,18.97-49.13v-103.22h-4.67v101.35c0,19.12-5.98,35.06-17.76,47.38-11.85,12.38-26.58,17.49-43.8,17.49s-31.96-5.11-43.8-17.49c-11.79-12.31-17.76-28.26-17.76-47.38v-101.35h-4.67v103.22c0,20.26,6.32,36.85,18.78,49.32,12.46,12.46,28.43,18.78,47.45,18.78Z"/>
  </g>
  <g>
    <path class="st0" d="M475.07,347.07h0c-.42.63-1.27.79-1.89.36-2.92-2.03-5.81-3.96-8.58-6.05-27.63-20.74-46.89-47.57-57.99-80.24-6.25-18.41-9.13-37.39-8.55-56.84,1.19-39.4,14.52-74.26,40.08-104.19,24.97-29.25,56.66-47.52,94.33-55.06,34.88-6.98,68.64-2.87,101.17,11.5,1.41.62,2.54,1.45,2.74,3.1.34,2.89-2.34,4.78-5.1,3.62-3.43-1.45-6.82-2.99-10.29-4.33-15.82-6.07-32.19-9.65-49.13-10.45-35.71-1.68-68.54,7.32-98.22,27.18-30.11,20.16-50.87,47.68-62.81,81.86-6.74,19.31-9.62,39.23-8.58,59.62,1.84,36.07,14.21,68.18,37.05,96.19,10,12.26,21.68,22.7,34.82,31.5.05.04.29.19.57.38.61.41.78,1.24.38,1.86Z"/>
    <path class="st0" d="M628.92,334.7h0c.32.74,0,1.59-.72,1.94-2.12,1.02-4.24,2.07-6.41,3.02-17.29,7.54-35.33,11.78-54.19,12.54-14.67.59-29.11-1-43.18-5.06-18.4-5.3-35.25-13.82-50.19-25.9-26.77-21.64-43.96-49.26-51.38-82.91-2.24-10.15-3.17-20.46-3.11-30.88.13-21.38,4.97-42.56,14.34-61.78,14.06-28.86,35.45-50.76,63.89-65.77,14.43-7.62,29.79-12.48,45.93-14.86,8.96-1.32,17.97-1.74,27.02-1.39,2.2.09,3.68,1.61,3.6,3.67-.07,2.01-1.55,3.32-3.76,3.34-5.39.05-10.79-.09-16.17.2-18.44,1.02-35.98,5.86-52.65,14.07-14.22,7-27.13,16.48-38.15,27.87-19.91,20.59-32.52,45.06-37.36,73.42-5.03,29.49-1.09,57.85,12.08,84.74,13.88,28.34,35.03,49.65,63.04,64.07,12.57,6.47,26.15,10.87,40.14,12.85,29.21,4.13,56.9-.44,83.18-12.96.73-.35,1.35-.66,2.01-.98.77-.38,1.69-.04,2.03.74Z"/>
    <path class="st0" d="M504.84,350.33h0c-.28.66-1.04.97-1.71.7-.27-.11-.5-.2-.57-.24-17.29-7.43-32.73-17.66-46.25-30.77-15.91-15.42-27.99-33.42-36.25-53.96-6.53-16.22-10.36-33.07-10.98-50.55-1.53-43.63,12.37-81.68,42.16-113.6,22.38-23.99,49.96-39.08,82.03-45.94,11.14-2.38,22.42-3.44,33.81-3.27,12.29.19,24.41,1.74,36.32,4.8,2.23.57,3.36,2.32,2.86,4.41-.47,1.97-2.44,3-4.68,2.41-12.7-3.34-25.61-5.03-38.74-4.94-22.2.14-43.36,4.98-63.43,14.47-16.03,7.58-30.32,17.65-42.76,30.28-19.99,20.29-33.13,44.37-39.59,72.09-2.95,12.66-4.23,25.5-3.78,38.49.74,21.06,5.58,41.16,14.75,60.15,14.4,29.8,36.11,52.7,65.25,68.47,3.37,1.82,6.88,3.37,10.34,5.03.06.03.3.14.59.28.63.3.92,1.05.64,1.7Z"/>
    <path class="st0" d="M647.13,221.88c-.18,2.07-.29,4.14-.56,6.2-2.01,15.03-7.69,28.62-17.1,40.42-11.57,14.5-26.39,24.42-44.44,29.11-16.45,4.28-32.93,4.51-49.3-.5-13.31-4.07-24.78-11.29-34.92-20.72-15.27-14.21-23.99-31.81-26.95-52.36-.12-.85-.24-1.7-.25-2.55,0-1.29.76-2.14,1.95-2.31,1.18-.18,2.29.4,2.59,1.6.39,1.57.57,3.2.82,4.8,4.09,26,17.12,46.12,39.47,60.12,10.1,6.33,21,10.7,32.86,12.09,25.54,2.98,48.48-3.25,68.19-20.14,14.94-12.79,23.14-29.28,26.31-48.47.35-2.15,1.1-7.03,1.17-7.32.17.03,0,0,.17.03Z"/>
    <path class="st0" d="M636.48,221.58c-.49,2.77-.8,5.58-1.49,8.29-7.2,28.17-24.51,47.32-52.41,55.44-27.62,8.04-52.37,1.24-73.62-18.09-5.87-5.34-10.53-11.7-14.31-18.68-.35-.64-.61-1.45-.56-2.15.09-1.08.9-1.75,1.98-1.89,1.09-.14,1.86.43,2.41,1.37,1.72,2.91,3.28,5.93,5.22,8.68,11.97,16.89,28.23,27.11,48.66,30.23,38.96,5.96,75.35-19.83,82.99-58.54.31-1.55.58-3.1.87-4.65h.25Z"/>
    <path class="st0" d="M622.09,196.37c1.52,4.8,2.32,9.76,2.48,14.83.48,15.5-3.98,29.43-13.73,41.49-10.34,12.8-23.77,20.47-40.06,22.84-17.1,2.49-32.69-1.54-46.76-11.52-.21-.15-.42-.3-.62-.45-1.36-1.03-1.67-2.38-.8-3.53.88-1.17,2.23-1.23,3.6-.17,23.6,18.41,56.59,17.01,78.49-3.5,11.02-10.32,17.26-23.14,18.85-38.17.63-5.97.62-12.57-1.45-21.82Z"/>
    <path class="st0" d="M601.93,183.43c4.31,5.17,7.19,11.09,8.92,17.58,6.1,22.9-5.15,47.19-26.76,57.76-10.3,5.04-21.12,6.38-32.38,4.37-.29-.05-.59-.12-.87-.21-1.33-.42-2-1.62-1.64-2.91.34-1.19,1.54-1.91,2.82-1.6,4.74,1.14,9.55,1.55,14.4,1.2,11.31-.8,21.16-5.06,29.41-12.81,9.67-9.09,14.61-20.39,15.1-33.63.38-10.2-2.43-19.52-7.92-28.07-.36-.56-.73-1.12-1.09-1.69Z"/>
    <path class="st0" d="M592.39,191.64c4.05,5.04,6.42,10.82,7.16,17.18,1.9,16.49-6.4,31.57-21.28,38.91-.27.13-.54.26-.82.37-1.07.42-2.08.06-2.5-.85-.42-.93,0-1.88,1.05-2.42,2.12-1.1,4.36-2.03,6.34-3.34,16.31-10.78,20.94-32.27,10.6-48.89-.19-.31-.37-.64-.55-.95Z"/>
    <path class="st0" d="M629.57,285.41c-.32-.26-.78-.24-1.08.04-18.27,17.32-42.67,27.13-67.98,27.13-14.25,0-27.8-3.04-40.04-8.49-2.09-.96-4.16-1.99-6.18-3.11-38.28-20.14-58.79-66.93-48.92-108.95.25-1.07-.44-2.13-1.53-2.3h0c-.98-.15-1.91.48-2.13,1.44-3.12,14.17-3.24,29.02-.21,43.18,7.03,32.14,27.4,55.77,52.83,68.59,13.84,7.2,29.54,11.28,46.19,11.28,25.73,0,50.53-9.97,69.1-27.57.36-.34.34-.93-.05-1.24h0Z"/>
    <path class="st0" d="M643.19,293.61c-.37-.3-.9-.28-1.25.05-21.22,20.11-49.55,31.5-78.94,31.5-16.55,0-32.28-3.53-46.5-9.86-2.43-1.12-4.83-2.31-7.18-3.61-45.16-23.76-69.43-78.24-56.65-127.62.54-2,1.04-4.01,1.61-5.99,0-.02,0-.03.01-.04.41-1.17,2.13-6.31,2.52-7.34.86-2.05,2.16-5.07,3.02-7.14,0-.02.02-.04.03-.06,1.02-1.98,2.48-4.9,3.49-6.88,0-.02.02-.03.03-.05.58-.95,3.36-5.65,3.97-6.65.59-.89,3.85-5.5,4.41-6.36.01-.02.02-.03.04-.05,1.38-1.75,3.43-4.25,4.81-6.01.01-.02.03-.03.04-.05,1.51-1.63,3.72-4.06,5.22-5.67.01-.01.02-.02.03-.03.46-.45,1.87-1.77,3.18-3.01.2-.19.41-.38.6-.57,1.02-.96,1.08-2.56.15-3.6l-.06-.06c-.98-1.09-2.67-1.15-3.72-.13-.33.32-.67.65-1.01.98-1.22,1.18-2.43,2.36-2.87,2.81-1.55,1.71-3.82,4.31-5.39,6.02-.02.02-.03.03-.04.05-1.43,1.85-3.54,4.51-4.95,6.36,0,.01-.01.02-.02.03-.59.87-3.83,5.7-4.5,6.68-.01.02-.02.03-.03.05l-3.23,5.58c-13.6,24.49-17.85,54.04-12.01,81.39,8.17,37.32,31.82,64.76,61.35,79.65,16.07,8.36,34.31,13.1,53.64,13.1,29.88,0,58.68-11.58,80.25-32.02.42-.4.39-1.08-.06-1.44h0Z"/>
    <path class="st0" d="M659.75,296.29c-.43-.4-1.1-.37-1.5.06-24.28,26.11-58.55,41.06-94.2,41.06-18.55,0-36.2-3.96-52.15-11.06-2.72-1.25-5.41-2.59-8.05-4.05-50.64-26.64-77.86-87.73-63.52-143.11.6-2.24,1.16-4.49,1.8-6.71,0-.02.01-.04.02-.07.47-1.33,2.39-7.07,2.82-8.23.96-2.3,2.42-5.68,3.38-8,.01-.03.02-.05.03-.07,1.14-2.22,2.78-5.49,3.91-7.71.01-.02.02-.04.04-.06.66-1.07,3.76-6.33,4.45-7.45.66-.99,4.31-6.16,4.95-7.13.02-.03.03-.04.05-.07,1.55-1.96,3.84-4.76,5.39-6.73.02-.02.03-.04.05-.06,1.69-1.83,4.16-4.54,5.85-6.36.01-.02.03-.03.04-.04.93-.9,5.22-4.93,6.27-5.95.02-.02.03-.03.05-.04,8.71-7.52,18.5-14.15,28.81-19.2,1.64-.77,2.31-2.76,1.48-4.37-.81-1.58-2.75-2.2-4.32-1.4-10.78,5.46-20.91,12.55-29.93,20.56-.02.01-.03.03-.05.04-1.1,1.08-5.5,5.34-6.5,6.33-1.74,1.91-4.28,4.83-6.04,6.75-.02.02-.03.04-.05.06-1.6,2.07-3.96,5.05-5.54,7.12-.01.02-.02.03-.03.04-.68.99-4.29,6.39-5.05,7.49-.01.02-.03.04-.04.06l-3.62,6.26c-15.25,27.46-20.01,60.6-13.47,91.27,9.16,41.85,35.69,72.62,68.8,89.32,18.02,9.38,38.48,14.69,60.15,14.69,36.25,0,71.09-15.2,95.77-41.74.41-.44.38-1.13-.06-1.53h0Z"/>
  </g>
</svg>