<?xml version="1.0" encoding="UTF-8"?>
<svg id="Camada_1" xmlns="http://www.w3.org/2000/svg" version="1.1" viewBox="0 0 1080 600">
  <!-- Generator: Adobe Illustrator 29.8.2, SVG Export Plug-In . SVG Version: 2.1.1 Build 3)  -->
  <defs>
    <style>
      .st0 {
        fill: #1d1d1b;
      }
    </style>
  </defs>
  <g>
    <path class="st0" d="M1005.96,317.54c-2.43-4.18-5.95-7.74-10.46-10.57-4.47-2.8-9.98-5.17-16.37-7.03-6.35-1.85-13.53-3.59-21.32-5.18-7.8-1.59-14.57-3.22-20.12-4.86-5.53-1.62-10.12-3.6-13.64-5.88-3.46-2.24-6.06-5.03-7.72-8.29-1.67-3.27-2.51-7.41-2.51-12.32s.85-9.65,2.53-13.66c1.67-3.98,4.35-7.47,7.95-10.37,3.62-2.91,8.32-5.18,13.97-6.73,5.68-1.57,12.61-2.36,20.59-2.36s15.4,1.12,21.33,3.34c5.9,2.21,11.66,6.36,17.13,12.35l.49.54,3.5-3.77-.42-.46c-5.61-6.14-11.88-10.58-18.64-13.19-6.74-2.6-14.75-3.92-23.8-3.92-7.58,0-14.49.84-20.55,2.51-6.09,1.67-11.38,4.19-15.73,7.47-4.37,3.3-7.78,7.39-10.14,12.16-2.35,4.77-3.55,10.33-3.55,16.5s1.1,10.94,3.26,14.93c2.16,3.99,5.42,7.35,9.68,9.99,4.22,2.61,9.42,4.77,15.48,6.44,6,1.65,13.01,3.23,20.82,4.68,8.01,1.57,15.07,3.31,21,5.15,5.87,1.82,10.76,4.07,14.53,6.67,3.73,2.57,6.53,5.67,8.33,9.2,1.8,3.54,2.71,7.95,2.71,13.11,0,10.31-4.01,18.11-11.92,23.19-8,5.14-19.08,7.75-32.93,7.75-10.6,0-20.18-1.66-28.48-4.92l-.9-.37-.22.68c-.32.98-.72,2.04-1.21,3.25l-.26.63.63.25c8.8,3.46,18.97,5.21,30.24,5.21,15.57,0,27.97-3.12,36.86-9.26,8.96-6.2,13.51-15.28,13.51-26.99,0-6.32-1.23-11.65-3.67-15.84Z"/>
    <path class="st0" d="M806.51,369.86c-9.19,0-17.84-1.94-25.95-5.81-8.11-3.87-15.18-9.1-21.22-15.68-6.04-6.58-10.81-14.28-14.33-23.11-3.51-8.83-5.27-18.11-5.27-27.84s1.76-19.24,5.27-27.98c3.51-8.74,8.33-16.44,14.46-23.11,6.12-6.67,13.24-11.94,21.35-15.81,8.11-3.87,16.67-5.81,25.68-5.81s17.57,1.94,25.68,5.81c8.11,3.88,15.18,9.15,21.22,15.81,6.03,6.67,10.85,14.37,14.46,23.11,3.6,8.74,5.41,18.07,5.41,27.98s-1.76,19.01-5.27,27.84c-3.51,8.83-8.29,16.54-14.33,23.11-6.04,6.58-13.11,11.8-21.22,15.68-8.11,3.87-16.76,5.81-25.95,5.81ZM745.15,297.96c0,9.01,1.62,17.57,4.87,25.68,3.24,8.11,7.61,15.18,13.11,21.22,5.49,6.04,11.94,10.81,19.33,14.33,7.39,3.51,15.32,5.27,23.79,5.27s16.17-1.8,23.65-5.41c7.48-3.6,14.06-8.47,19.73-14.6,5.68-6.12,10.14-13.24,13.38-21.35,3.24-8.11,4.87-16.76,4.87-25.95s-1.62-17.57-4.87-25.68c-3.24-8.11-7.66-15.23-13.24-21.35-5.59-6.12-12.12-10.99-19.6-14.6-7.48-3.6-15.37-5.41-23.65-5.41s-16.18,1.81-23.65,5.41c-7.48,3.61-14.01,8.51-19.6,14.73-5.59,6.22-10,13.43-13.24,21.63-3.24,8.2-4.87,16.89-4.87,26.09Z"/>
    <path class="st0" d="M329.29,295.97c0-8.59,1.51-17.11,4.53-25.56,3.02-8.45,7.38-16.07,13.08-22.85,5.7-6.78,12.75-12.28,21.13-16.51,8.39-4.23,17.95-6.34,28.68-6.34,12.75,0,23.55,2.92,32.41,8.76,8.86,5.84,15.43,13.32,19.73,22.44l-3.82,1.21c-2.82-5.23-6.07-9.66-9.76-13.28-3.69-3.62-7.72-6.54-12.08-8.76-4.36-2.21-8.86-3.82-13.49-4.83-4.63-1.01-9.23-1.51-13.79-1.51-9.93,0-18.79,1.98-26.57,5.94-7.78,3.96-14.36,9.16-19.73,15.6-5.37,6.44-9.43,13.72-12.18,21.84-2.75,8.12-4.13,16.27-4.13,24.46,0,9.12,1.64,17.85,4.93,26.17,3.29,8.32,7.78,15.67,13.49,22.04,5.7,6.37,12.38,11.44,20.03,15.2,7.65,3.76,15.9,5.64,24.76,5.64,4.69,0,9.53-.6,14.49-1.81,4.96-1.21,9.76-3.02,14.39-5.43,4.63-2.41,8.92-5.53,12.88-9.36,3.96-3.82,7.35-8.35,10.17-13.59l3.82,1.01c-2.42,5.37-5.71,10.13-9.86,14.29-4.16,4.16-8.79,7.65-13.89,10.47-5.1,2.82-10.5,4.93-16.2,6.34-5.7,1.41-11.24,2.11-16.6,2.11-9.66,0-18.59-2.14-26.77-6.44-8.19-4.29-15.2-9.89-21.03-16.81-5.84-6.91-10.4-14.76-13.69-23.55-3.29-8.79-4.93-17.74-4.93-26.87Z"/>
    <path class="st0" d="M525.35,369.63h28.97v-2.81h-25.98c-10.53,0-19.1-3.78-25.47-11.22-6.27-7.33-9.45-16.74-9.45-27.98v-102.91h-4.09v103.34c0,12.95,3.71,23.22,11.04,30.54,7.32,7.32,15.73,11.04,24.99,11.04Z"/>
    <path class="st0" d="M647.37,370c16.09,0,29.16-5.24,39.95-16.03,10.64-10.64,16.03-24.61,16.03-41.53v-87.26h-3.95v85.68c0,16.16-5.05,29.64-15.02,40.06-10.01,10.47-22.47,15.77-37.03,15.77s-27.02-5.31-37.03-15.77c-9.96-10.41-15.02-23.89-15.02-40.06v-85.68h-3.95v87.26c0,17.13,5.34,31.15,15.88,41.69,10.53,10.54,24.03,15.88,40.11,15.88Z"/>
  </g>
  <g>
    <path class="st0" d="M135.93,427.61h0c-.35.54-1.08.67-1.61.31-2.48-1.72-4.94-3.37-7.3-5.14-23.5-17.64-39.88-40.46-49.31-68.24-5.32-15.66-7.77-31.8-7.27-48.34,1.01-33.51,12.35-63.15,34.09-88.61,21.24-24.88,48.19-40.41,80.22-46.83,29.66-5.94,58.38-2.44,86.04,9.78,1.2.53,2.16,1.23,2.33,2.63.29,2.46-1.99,4.07-4.34,3.08-2.92-1.23-5.8-2.55-8.75-3.68-13.46-5.16-27.37-8.21-41.78-8.89-30.37-1.43-58.29,6.22-83.53,23.12-25.61,17.14-43.26,40.55-53.42,69.62-5.74,16.42-8.18,33.36-7.3,50.71,1.56,30.68,12.09,57.98,31.51,81.8,8.51,10.43,18.44,19.31,29.61,26.79.05.03.25.17.49.32.52.35.67,1.05.32,1.58Z"/>
    <path class="st0" d="M266.77,417.09h0c.27.63,0,1.35-.62,1.65-1.8.87-3.61,1.76-5.45,2.57-14.7,6.41-30.05,10.02-46.09,10.67-12.47.5-24.76-.85-36.72-4.3-15.64-4.51-29.98-11.76-42.68-22.03-22.77-18.41-37.39-41.9-43.69-70.51-1.9-8.63-2.7-17.4-2.64-26.26.11-18.19,4.23-36.19,12.19-52.54,11.95-24.54,30.14-43.17,54.34-55.94,12.27-6.48,25.33-10.61,39.06-12.64,7.62-1.12,15.29-1.48,22.98-1.18,1.87.07,3.13,1.37,3.06,3.12-.06,1.71-1.32,2.82-3.2,2.84-4.58.04-9.18-.08-13.75.17-15.68.87-30.6,4.98-44.78,11.97-12.1,5.96-23.07,14.01-32.44,23.7-16.93,17.51-27.66,38.32-31.78,62.44-4.28,25.08-.93,49.2,10.28,72.07,11.81,24.1,29.79,42.22,53.62,54.49,10.69,5.5,22.24,9.24,34.14,10.93,24.85,3.51,48.39-.37,70.74-11.02.62-.3,1.15-.56,1.71-.83.65-.32,1.44-.04,1.73.63Z"/>
    <path class="st0" d="M161.25,430.38h0c-.24.56-.89.83-1.45.59-.23-.09-.42-.17-.49-.2-14.71-6.32-27.83-15.02-39.34-26.17-13.53-13.11-23.8-28.42-30.83-45.89-5.55-13.8-8.81-28.12-9.33-42.99-1.3-37.1,10.52-69.46,35.85-96.62,19.03-20.4,42.49-33.24,69.77-39.07,9.47-2.03,19.07-2.93,28.75-2.78,10.45.16,20.76,1.48,30.89,4.08,1.9.49,2.86,1.97,2.43,3.75-.4,1.67-2.08,2.55-3.98,2.05-10.8-2.84-21.78-4.27-32.94-4.2-18.88.12-36.87,4.23-53.95,12.31-13.63,6.44-25.78,15.01-36.36,25.75-17,17.25-28.17,37.73-33.67,61.31-2.51,10.77-3.6,21.69-3.21,32.73.63,17.91,4.74,35.01,12.54,51.16,12.25,25.35,30.71,44.82,55.49,58.23,2.86,1.55,5.85,2.87,8.79,4.28.05.02.25.12.5.24.54.26.78.89.55,1.44Z"/>
    <path class="st0" d="M282.26,321.13c-.16,1.76-.24,3.52-.48,5.27-1.71,12.78-6.54,24.34-14.54,34.38-9.84,12.33-22.44,20.77-37.8,24.76-13.99,3.64-28,3.83-41.93-.43-11.32-3.46-21.08-9.6-29.7-17.62-12.99-12.09-20.4-27.05-22.92-44.53-.1-.72-.21-1.45-.21-2.17,0-1.1.64-1.82,1.66-1.97,1-.15,1.95.34,2.2,1.36.33,1.34.48,2.72.7,4.09,3.48,22.11,14.56,39.22,33.56,51.13,8.59,5.39,17.86,9.1,27.95,10.28,21.72,2.54,41.23-2.77,58-17.12,12.71-10.88,19.68-24.91,22.38-41.23.3-1.83.94-5.98,1-6.23.14.03,0,0,.14.03Z"/>
    <path class="st0" d="M273.21,320.89c-.42,2.35-.68,4.75-1.27,7.05-6.13,23.96-20.85,40.24-44.57,47.15-23.49,6.84-44.54,1.05-62.61-15.38-5-4.54-8.95-9.95-12.17-15.89-.29-.54-.52-1.23-.47-1.83.07-.92.77-1.49,1.68-1.6.93-.12,1.58.37,2.05,1.16,1.46,2.47,2.79,5.05,4.44,7.38,10.18,14.36,24.01,23.05,41.39,25.71,33.13,5.06,64.08-16.86,70.58-49.79.26-1.32.49-2.64.74-3.96h.21Z"/>
    <path class="st0" d="M260.96,299.44c1.29,4.09,1.98,8.3,2.11,12.61.4,13.18-3.39,25.03-11.68,35.29-8.79,10.89-20.22,17.41-34.07,19.43-14.54,2.12-27.8-1.31-39.77-9.8-.18-.13-.35-.26-.53-.39-1.16-.87-1.42-2.02-.68-3,.75-1,1.9-1.05,3.06-.14,20.07,15.66,48.13,14.47,66.76-2.98,9.37-8.78,14.68-19.68,16.03-32.47.54-5.08.53-10.69-1.23-18.55Z"/>
    <path class="st0" d="M243.82,288.44c3.66,4.4,6.12,9.43,7.58,14.95,5.19,19.48-4.38,40.13-22.75,49.13-8.76,4.29-17.96,5.42-27.54,3.72-.25-.04-.5-.1-.74-.18-1.13-.36-1.7-1.37-1.39-2.47.29-1.01,1.31-1.62,2.4-1.36,4.03.97,8.12,1.32,12.25,1.02,9.62-.68,17.99-4.3,25.01-10.89,8.23-7.73,12.42-17.34,12.84-28.6.32-8.68-2.07-16.6-6.73-23.88-.31-.48-.62-.96-.93-1.43Z"/>
    <path class="st0" d="M235.71,295.42c3.44,4.28,5.46,9.2,6.09,14.61,1.62,14.03-5.44,26.85-18.09,33.09-.23.11-.46.22-.69.32-.91.35-1.77.05-2.12-.73-.36-.79,0-1.6.89-2.06,1.81-.93,3.71-1.73,5.39-2.84,13.87-9.16,17.81-27.45,9.01-41.58-.17-.27-.31-.54-.47-.81Z"/>
    <path class="st0" d="M267.32,375.16c-.27-.22-.66-.2-.92.04-15.54,14.73-36.29,23.07-57.81,23.07-12.12,0-23.64-2.58-34.05-7.22-1.78-.82-3.54-1.69-5.26-2.65-32.56-17.13-50-56.92-41.61-92.65.21-.91-.38-1.81-1.3-1.96h0c-.83-.13-1.63.41-1.81,1.23-2.65,12.05-2.75,24.68-.18,36.72,5.98,27.33,23.3,47.43,44.93,58.33,11.77,6.12,25.13,9.59,39.28,9.59,21.88,0,42.98-8.48,58.77-23.45.31-.29.29-.79-.04-1.06h0Z"/>
    <path class="st0" d="M278.91,382.14c-.32-.26-.77-.24-1.06.04-18.04,17.1-42.14,26.79-67.14,26.79-14.07,0-27.45-3-39.55-8.39-2.06-.95-4.11-1.96-6.11-3.07-38.41-20.21-59.05-66.54-48.18-108.53.46-1.7.88-3.41,1.37-5.1,0-.01,0-.02.01-.04.35-.99,1.81-5.37,2.14-6.24.73-1.75,1.84-4.31,2.57-6.07,0-.02.01-.03.02-.05.86-1.69,2.11-4.17,2.97-5.85,0-.02.01-.03.02-.04.49-.81,2.85-4.81,3.38-5.66.5-.75,3.27-4.68,3.75-5.41.01-.02.02-.03.03-.05,1.18-1.49,2.91-3.61,4.09-5.11.01-.02.02-.03.04-.04,1.28-1.39,3.16-3.45,4.44-4.82,0-.01.02-.02.03-.03.39-.38,1.59-1.51,2.71-2.56.17-.16.35-.33.51-.48.87-.82.92-2.18.12-3.06l-.05-.05c-.83-.93-2.27-.98-3.16-.11-.28.27-.57.55-.86.83-1.04,1.01-2.07,2.01-2.44,2.39-1.32,1.45-3.25,3.66-4.58,5.12-.01.01-.02.03-.04.04-1.21,1.57-3.01,3.84-4.21,5.41,0,0-.01.01-.02.02-.51.74-3.26,4.85-3.83,5.69-.01.02-.02.03-.03.05l-2.75,4.75c-11.57,20.83-15.18,45.96-10.21,69.22,6.95,31.74,27.06,55.08,52.18,67.74,13.66,7.11,29.18,11.14,45.62,11.14,25.41,0,49.91-9.85,68.25-27.23.36-.34.33-.92-.05-1.23h0Z"/>
    <path class="st0" d="M293,384.42c-.37-.34-.94-.31-1.27.05-20.65,22.2-49.79,34.92-80.12,34.92-15.78,0-30.79-3.36-44.35-9.4-2.32-1.06-4.61-2.2-6.85-3.45-43.07-22.66-66.22-74.61-54.03-121.71.51-1.9.99-3.82,1.53-5.71,0-.02.01-.04.02-.06.4-1.13,2.03-6.02,2.4-7,.82-1.96,2.06-4.83,2.88-6.8,0-.02.02-.04.03-.06.97-1.89,2.36-4.67,3.32-6.56.01-.02.02-.03.03-.05.56-.91,3.2-5.39,3.79-6.34.56-.84,3.67-5.24,4.21-6.06.01-.02.02-.04.04-.06,1.32-1.67,3.26-4.05,4.59-5.73.01-.02.03-.03.04-.05,1.44-1.55,3.54-3.86,4.97-5.41.01-.01.02-.02.03-.04.79-.76,4.44-4.19,5.34-5.06.01-.01.03-.02.04-.04,7.41-6.39,15.73-12.03,24.5-16.33,1.39-.66,1.97-2.35,1.26-3.72-.69-1.34-2.33-1.87-3.68-1.19-9.16,4.64-17.78,10.67-25.46,17.48-.01.01-.03.02-.04.04-.93.92-4.68,4.54-5.52,5.39-1.48,1.63-3.64,4.1-5.13,5.74-.02.02-.03.03-.04.05-1.36,1.76-3.37,4.3-4.71,6.06-.01.01-.02.02-.03.04-.58.84-3.65,5.43-4.29,6.37-.01.02-.02.03-.03.05l-3.08,5.32c-12.97,23.35-17.02,51.54-11.45,77.62,7.79,35.59,30.35,61.76,58.51,75.97,15.32,7.97,32.72,12.49,51.16,12.49,30.83,0,60.46-12.93,81.44-35.5.35-.37.32-.96-.05-1.3h0Z"/>
  </g>
</svg>