<?xml version="1.0" encoding="UTF-8"?>
<svg id="Camada_1" xmlns="http://www.w3.org/2000/svg" version="1.1" xmlns:xlink="http://www.w3.org/1999/xlink" viewBox="0 0 1080 600">
  <!-- Generator: Adobe Illustrator 29.8.2, SVG Export Plug-In . SVG Version: 2.1.1 Build 3)  -->
  <defs>
    <style>
      .st0 {
        fill: url(#Gradiente_sem_nome_8310);
      }

      .st1 {
        fill: url(#Gradiente_sem_nome_835);
      }

      .st2 {
        fill: url(#Gradiente_sem_nome_836);
      }

      .st3 {
        fill: url(#Gradiente_sem_nome_83);
      }

      .st4 {
        fill: url(#Gradiente_sem_nome_839);
      }

      .st5 {
        fill: url(#Gradiente_sem_nome_832);
      }

      .st6 {
        fill: url(#Gradiente_sem_nome_838);
      }

      .st7 {
        fill: url(#Gradiente_sem_nome_837);
      }

      .st8 {
        fill: url(#Gradiente_sem_nome_831);
      }

      .st9 {
        fill: url(#Gradiente_sem_nome_834);
      }

      .st10 {
        fill: url(#Gradiente_sem_nome_833);
      }
    </style>
    <linearGradient id="Gradiente_sem_nome_83" data-name="Gradiente sem nome 83" x1="322.86" y1="296.15" x2="717.87" y2="296.15" gradientUnits="userSpaceOnUse">
      <stop offset="0" stop-color="#1d1d1b"/>
      <stop offset=".1" stop-color="#20363d"/>
      <stop offset=".12" stop-color="#1c2f36"/>
      <stop offset=".47" stop-color="#417a72"/>
      <stop offset=".98" stop-color="#a1c0bb"/>
    </linearGradient>
    <linearGradient id="Gradiente_sem_nome_831" data-name="Gradiente sem nome 83" x1="358.91" y1="318.07" x2="705.68" y2="318.07" xlink:href="#Gradiente_sem_nome_83"/>
    <linearGradient id="Gradiente_sem_nome_832" data-name="Gradiente sem nome 83" x1="341.06" y1="308.08" x2="668.11" y2="308.08" xlink:href="#Gradiente_sem_nome_83"/>
    <linearGradient id="Gradiente_sem_nome_833" data-name="Gradiente sem nome 83" x1="448.14" y1="404.3" x2="735.65" y2="404.3" xlink:href="#Gradiente_sem_nome_83"/>
    <linearGradient id="Gradiente_sem_nome_834" data-name="Gradiente sem nome 83" x1="482.1" y1="396.23" x2="718.01" y2="396.23" xlink:href="#Gradiente_sem_nome_83"/>
    <linearGradient id="Gradiente_sem_nome_835" data-name="Gradiente sem nome 83" x1="528.5" y1="365.08" x2="698.31" y2="365.08" xlink:href="#Gradiente_sem_nome_83"/>
    <linearGradient id="Gradiente_sem_nome_836" data-name="Gradiente sem nome 83" x1="573.25" y1="344.25" x2="678.27" y2="344.25" xlink:href="#Gradiente_sem_nome_83"/>
    <linearGradient id="Gradiente_sem_nome_837" data-name="Gradiente sem nome 83" x1="615.82" y1="337.99" x2="657.26" y2="337.99" xlink:href="#Gradiente_sem_nome_83"/>
    <linearGradient id="Gradiente_sem_nome_838" data-name="Gradiente sem nome 83" x1="424.44" y1="391.02" x2="707.05" y2="391.02" xlink:href="#Gradiente_sem_nome_83"/>
    <linearGradient id="Gradiente_sem_nome_839" data-name="Gradiente sem nome 83" x1="401.51" y1="346.94" x2="729.71" y2="346.94" xlink:href="#Gradiente_sem_nome_83"/>
    <linearGradient id="Gradiente_sem_nome_8310" data-name="Gradiente sem nome 83" x1="379.61" y1="328.75" x2="757.14" y2="328.75" xlink:href="#Gradiente_sem_nome_83"/>
  </defs>
  <path class="st3" d="M450.57,548.59h0c-.69,1.05-2.1,1.31-3.13.6-4.83-3.36-9.62-6.57-14.22-10.02-45.78-34.36-77.69-78.82-96.07-132.94-10.36-30.5-15.13-61.95-14.16-94.17,1.97-65.28,24.06-123.03,66.4-172.63,41.38-48.47,93.88-78.73,156.28-91.22,57.78-11.57,113.72-4.75,167.61,19.05,2.34,1.03,4.21,2.39,4.54,5.13.57,4.78-3.88,7.92-8.45,5.99-5.68-2.4-11.3-4.96-17.05-7.17-26.21-10.06-53.33-15.99-81.4-17.32-59.16-2.79-113.56,12.12-162.73,45.03-49.89,33.39-84.28,79-104.06,135.62-11.17,31.98-15.93,64.99-14.21,98.78,3.04,59.76,23.54,112.95,61.39,159.36,16.57,20.32,35.92,37.61,57.69,52.19.09.06.48.32.95.63,1.02.68,1.3,2.05.63,3.08Z"/>
  <path class="st8" d="M705.48,528.1h0c.53,1.22,0,2.64-1.2,3.22-3.51,1.69-7.03,3.43-10.62,5-28.64,12.49-58.53,19.52-89.79,20.78-24.3.98-48.23-1.66-71.53-8.38-30.48-8.79-58.4-22.9-83.15-42.91-44.36-35.86-72.84-81.62-85.12-137.36-3.7-16.81-5.25-33.9-5.15-51.16.22-35.43,8.24-70.51,23.75-102.36,23.29-47.82,58.73-84.1,105.85-108.97,23.91-12.62,49.35-20.68,76.09-24.62,14.85-2.19,29.78-2.89,44.77-2.31,3.65.14,6.09,2.67,5.97,6.09-.12,3.33-2.58,5.5-6.23,5.53-8.93.09-17.88-.15-26.79.34-30.55,1.69-59.61,9.71-87.23,23.31-23.56,11.6-44.95,27.3-63.2,46.18-32.98,34.11-53.88,74.65-61.9,121.65-8.34,48.85-1.81,95.84,20.02,140.4,23,46.95,58.04,82.25,104.45,106.15,20.82,10.72,43.32,18.01,66.51,21.28,48.4,6.84,94.27-.72,137.81-21.47,1.21-.58,2.24-1.09,3.32-1.62,1.27-.63,2.81-.07,3.37,1.23Z"/>
  <path class="st5" d="M499.91,554h0c-.46,1.09-1.73,1.61-2.83,1.16-.44-.18-.82-.34-.95-.39-28.65-12.3-54.22-29.26-76.63-50.99-26.35-25.55-46.37-55.36-60.07-89.4-10.81-26.88-17.17-54.78-18.18-83.76-2.53-72.28,20.5-135.32,69.84-188.22,37.07-39.74,82.77-64.75,135.91-76.11,18.46-3.95,37.15-5.71,56.01-5.42,20.35.31,40.44,2.88,60.17,7.96,3.7.95,5.56,3.84,4.74,7.31-.78,3.26-4.05,4.97-7.75,3.99-21.04-5.53-42.44-8.33-64.18-8.19-36.78.23-71.83,8.25-105.1,23.98-26.56,12.56-50.23,29.24-70.84,50.16-33.12,33.61-54.88,73.5-65.6,119.44-4.89,20.98-7.01,42.25-6.26,63.77,1.22,34.9,9.24,68.2,24.44,99.66,23.86,49.38,59.82,87.32,108.1,113.45,5.58,3.02,11.4,5.58,17.13,8.33.09.05.49.23.98.47,1.05.5,1.52,1.74,1.07,2.81Z"/>
  <path class="st10" d="M735.65,341.17c-.3,3.42-.48,6.86-.93,10.26-3.33,24.9-12.74,47.42-28.33,66.97-19.17,24.02-43.72,40.46-73.63,48.23-27.25,7.08-54.55,7.47-81.68-.83-22.05-6.75-41.06-18.7-57.86-34.33-25.31-23.54-39.75-52.7-44.66-86.75-.2-1.4-.4-2.82-.41-4.23-.01-2.13,1.25-3.54,3.23-3.83,1.95-.29,3.79.66,4.28,2.66.64,2.61.94,5.3,1.36,7.96,6.77,43.07,28.37,76.41,65.39,99.61,16.74,10.49,34.79,17.73,54.45,20.02,42.32,4.94,80.31-5.39,112.98-33.36,24.76-21.2,38.34-48.52,43.59-80.31.59-3.56,1.83-11.65,1.94-12.13.27.05,0,0,.27.05Z"/>
  <path class="st9" d="M718.01,340.69c-.81,4.58-1.32,9.24-2.47,13.74-11.93,46.67-40.62,78.4-86.83,91.85-45.76,13.32-86.76,2.05-121.97-29.96-9.73-8.85-17.44-19.39-23.7-30.96-.57-1.06-1.01-2.4-.92-3.57.15-1.79,1.5-2.9,3.28-3.12,1.81-.23,3.07.72,3.99,2.26,2.85,4.82,5.43,9.83,8.66,14.38,19.83,27.98,46.77,44.91,80.63,50.08,64.54,9.87,124.83-32.85,137.5-96.99.51-2.56.96-5.14,1.43-7.71h.41Z"/>
  <path class="st1" d="M694.15,298.91c2.51,7.96,3.85,16.18,4.11,24.57.79,25.68-6.6,48.75-22.74,68.74-17.13,21.21-39.38,33.92-66.37,37.85-28.33,4.12-54.16-2.55-77.48-19.08-.35-.25-.69-.5-1.03-.75-2.26-1.7-2.76-3.94-1.33-5.85,1.46-1.94,3.7-2.05,5.96-.28,39.11,30.5,93.76,28.18,130.05-5.8,18.26-17.1,28.59-38.34,31.23-63.25,1.05-9.9,1.03-20.82-2.4-36.15Z"/>
  <path class="st2" d="M660.77,277.48c7.14,8.56,11.92,18.38,14.78,29.12,10.1,37.95-8.54,78.18-44.33,95.7-17.07,8.36-34.99,10.56-53.64,7.24-.49-.09-.97-.2-1.45-.35-2.21-.7-3.32-2.68-2.71-4.81.56-1.97,2.55-3.16,4.68-2.64,7.85,1.9,15.82,2.57,23.86,2,18.73-1.33,35.05-8.38,48.72-21.22,16.03-15.06,24.2-33.78,25.02-55.72.63-16.9-4.03-32.34-13.12-46.51-.6-.93-1.21-1.86-1.81-2.79Z"/>
  <path class="st7" d="M644.96,291.08c6.71,8.35,10.64,17.92,11.86,28.46,3.15,27.32-10.61,52.3-35.25,64.46-.44.22-.89.44-1.35.62-1.77.69-3.45.11-4.14-1.41-.69-1.54.01-3.12,1.74-4.01,3.52-1.82,7.22-3.37,10.5-5.54,27.03-17.85,34.7-53.47,17.56-81-.32-.52-.61-1.05-.92-1.58Z"/>
  <path class="st6" d="M706.54,446.43c-.53-.43-1.29-.4-1.78.07-30.27,28.69-70.69,44.94-112.62,44.94-23.6,0-46.05-5.03-66.34-14.07-3.46-1.59-6.89-3.29-10.24-5.15-63.43-33.37-97.41-110.88-81.05-180.5.42-1.78-.74-3.53-2.54-3.81h0c-1.62-.25-3.17.79-3.52,2.39-5.17,23.48-5.36,48.08-.35,71.54,11.65,53.25,45.4,92.39,87.53,113.64,22.92,11.93,48.95,18.68,76.53,18.68,42.62,0,83.72-16.52,114.49-45.69.6-.57.56-1.54-.08-2.06h0Z"/>
  <path class="st4" d="M729.12,460.02c-.61-.5-1.5-.46-2.07.08-35.15,33.32-82.1,52.2-130.79,52.2-27.41,0-53.48-5.84-77.04-16.34-4.02-1.85-8-3.82-11.9-5.99-74.82-39.36-115.03-129.62-93.85-211.44.89-3.31,1.72-6.64,2.66-9.93,0-.03.01-.05.02-.07.69-1.94,3.53-10.46,4.18-12.16,1.42-3.4,3.58-8.39,5-11.82.01-.03.03-.06.04-.1,1.68-3.29,4.11-8.12,5.78-11.4.02-.03.03-.05.05-.09.96-1.58,5.56-9.36,6.58-11.02.98-1.47,6.38-9.11,7.31-10.53.02-.03.04-.06.06-.09,2.29-2.9,5.68-7.04,7.98-9.96.02-.03.04-.05.07-.08,2.5-2.7,6.16-6.72,8.64-9.4.02-.02.03-.04.05-.06.77-.74,3.1-2.94,5.27-4.99.34-.32.67-.64,1-.94,1.69-1.59,1.79-4.24.24-5.97l-.09-.1c-1.62-1.81-4.42-1.91-6.16-.21-.54.52-1.11,1.07-1.67,1.62-2.02,1.96-4.03,3.91-4.76,4.65-2.57,2.83-6.33,7.13-8.92,9.98-.03.03-.05.05-.07.08-2.37,3.06-5.86,7.48-8.2,10.54-.01.02-.02.03-.03.05-.99,1.44-6.35,9.44-7.46,11.08-.02.03-.04.06-.06.09l-5.35,9.25c-22.53,40.57-29.57,89.53-19.89,134.84,13.53,61.84,52.72,107.29,101.65,131.97,26.62,13.85,56.85,21.7,88.87,21.7,49.5,0,97.23-19.19,132.96-53.05.69-.66.65-1.79-.1-2.39h0Z"/>
  <path class="st0" d="M756.56,464.46c-.72-.66-1.82-.61-2.48.11-40.22,43.25-97,68.03-156.07,68.03-30.74,0-59.97-6.55-86.39-18.32-4.51-2.07-8.97-4.28-13.34-6.71-83.91-44.14-128.99-145.35-105.25-237.1,1-3.71,1.93-7.43,2.98-11.12.01-.04.02-.07.03-.11.78-2.2,3.96-11.72,4.68-13.63,1.59-3.81,4.01-9.41,5.6-13.25.02-.04.03-.08.06-.12,1.89-3.69,4.6-9.1,6.48-12.77.02-.04.04-.07.06-.11,1.09-1.78,6.23-10.49,7.38-12.35,1.1-1.65,7.14-10.2,8.2-11.81.03-.04.05-.07.08-.11,2.57-3.25,6.36-7.88,8.94-11.16.03-.04.05-.07.09-.1,2.8-3.02,6.9-7.53,9.69-10.53.02-.03.04-.04.07-.07,1.54-1.49,8.65-8.16,10.39-9.85.03-.03.05-.05.08-.07,14.43-12.45,30.65-23.44,47.74-31.81,2.71-1.28,3.83-4.57,2.46-7.24-1.34-2.62-4.55-3.65-7.17-2.31-17.85,9.05-34.64,20.79-49.59,34.06-.03.02-.05.04-.08.07-1.82,1.79-9.12,8.85-10.76,10.49-2.88,3.17-7.1,8-10,11.19-.03.03-.06.06-.08.1-2.65,3.43-6.56,8.37-9.18,11.8-.02.03-.03.05-.05.07-1.12,1.64-7.11,10.58-8.36,12.41-.02.04-.04.06-.06.1l-6,10.37c-25.27,45.5-33.16,100.4-22.31,151.21,15.17,69.34,59.12,120.32,113.99,147.99,29.85,15.54,63.75,24.33,99.66,24.33,60.05,0,117.77-25.18,158.66-69.15.67-.72.62-1.87-.11-2.53h0Z"/>
</svg>