<?xml version="1.0" encoding="UTF-8"?>
<svg id="Camada_1" xmlns="http://www.w3.org/2000/svg" version="1.1" xmlns:xlink="http://www.w3.org/1999/xlink" viewBox="0 0 1080 600">
  <!-- Generator: Adobe Illustrator 29.8.2, SVG Export Plug-In . SVG Version: 2.1.1 Build 3)  -->
  <defs>
    <style>
      .st0 {
        fill: url(#Gradiente_sem_nome_294);
      }

      .st1 {
        fill: #273237;
      }
    </style>
    <linearGradient id="Gradiente_sem_nome_294" data-name="Gradiente sem nome 294" x1="0" y1="297.36" x2="1078.85" y2="297.36" gradientUnits="userSpaceOnUse">
      <stop offset="0" stop-color="#626360"/>
      <stop offset=".47" stop-color="#cac1a0"/>
      <stop offset="1" stop-color="#b7b39f"/>
    </linearGradient>
  </defs>
  <rect class="st0" y="-5.28" width="1078.85" height="605.28"/>
  <g>
    <path class="st1" d="M452.09,544.36h0c-.68,1.03-2.07,1.29-3.08.59-4.75-3.3-9.46-6.45-13.98-9.85-45-33.78-76.37-77.48-94.44-130.68-10.18-29.98-14.87-60.89-13.92-92.57,1.93-64.17,23.65-120.93,65.28-169.69,40.67-47.64,92.28-77.39,153.62-89.67,56.8-11.37,111.79-4.67,164.76,18.72,2.3,1.01,4.14,2.35,4.46,5.04.56,4.7-3.81,7.79-8.31,5.89-5.58-2.36-11.1-4.88-16.76-7.05-25.77-9.89-52.42-15.72-80.01-17.02-58.15-2.74-111.63,11.92-159.97,44.27-49.04,32.83-82.85,77.66-102.29,133.32-10.98,31.44-15.66,63.89-13.97,97.1,2.99,58.75,23.14,111.03,60.34,156.65,16.29,19.97,35.31,36.97,56.71,51.3.09.06.47.32.93.62,1,.67,1.28,2.02.62,3.02Z"/>
    <path class="st1" d="M702.66,524.22h0c.52,1.2,0,2.59-1.18,3.16-3.45,1.66-6.91,3.37-10.44,4.91-28.15,12.27-57.54,19.19-88.26,20.43-23.89.96-47.41-1.63-70.32-8.24-29.96-8.64-57.41-22.51-81.74-42.18-43.6-35.25-71.6-80.23-83.67-135.03-3.64-16.52-5.16-33.32-5.06-50.29.21-34.83,8.1-69.31,23.35-100.62,22.89-47,57.73-82.67,104.05-107.12,23.5-12.4,48.51-20.33,74.79-24.2,14.59-2.15,29.27-2.84,44.01-2.27,3.59.14,5.99,2.62,5.87,5.98-.12,3.27-2.53,5.41-6.13,5.44-8.78.08-17.58-.15-26.33.33-30.03,1.66-58.6,9.55-85.75,22.91-23.16,11.41-44.18,26.83-62.13,45.39-32.42,33.53-52.96,73.38-60.85,119.58-8.2,48.02-1.78,94.21,19.68,138.01,22.61,46.15,57.05,80.85,102.67,104.34,20.47,10.54,42.58,17.7,65.38,20.92,47.58,6.72,92.67-.71,135.47-21.1,1.19-.57,2.2-1.07,3.27-1.59,1.25-.62,2.76-.07,3.31,1.21Z"/>
    <path class="st1" d="M500.59,549.68h0c-.46,1.08-1.7,1.58-2.78,1.14-.44-.18-.81-.33-.93-.39-28.16-12.1-53.3-28.76-75.33-50.12-25.9-25.11-45.58-54.42-59.05-87.88-10.63-26.42-16.88-53.85-17.87-82.33-2.49-71.05,20.15-133.02,68.66-185.02,36.44-39.07,81.37-63.64,133.6-74.81,18.14-3.88,36.52-5.61,55.06-5.33,20.01.3,39.75,2.84,59.15,7.82,3.64.93,5.47,3.78,4.66,7.18-.76,3.21-3.98,4.88-7.62,3.92-20.68-5.44-41.72-8.18-63.09-8.05-36.16.23-70.61,8.11-103.31,23.57-26.11,12.34-49.37,28.75-69.64,49.31-32.55,33.04-53.95,72.25-64.48,117.41-4.81,20.62-6.89,41.53-6.15,62.68,1.2,34.3,9.08,67.04,24.02,97.96,23.45,48.54,58.8,85.83,106.26,111.52,5.48,2.97,11.21,5.49,16.84,8.19.09.04.48.23.96.46,1.03.49,1.5,1.71,1.05,2.76Z"/>
    <path class="st1" d="M732.32,340.47c-.3,3.36-.47,6.75-.92,10.09-3.27,24.48-12.52,46.61-27.85,65.83-18.84,23.61-42.97,39.77-72.38,47.41-26.79,6.96-53.62,7.34-80.29-.82-21.67-6.63-40.36-18.38-56.87-33.74-24.88-23.14-39.07-51.8-43.9-85.27-.2-1.38-.4-2.77-.4-4.15-.01-2.1,1.23-3.48,3.18-3.77,1.91-.29,3.73.65,4.21,2.61.63,2.56.92,5.21,1.33,7.82,6.66,42.34,27.89,75.11,64.28,97.92,16.45,10.31,34.2,17.43,53.52,19.68,41.6,4.86,78.95-5.3,111.06-32.79,24.34-20.84,37.69-47.69,42.85-78.95.58-3.5,1.8-11.45,1.91-11.92.27.05,0,0,.27.05Z"/>
    <path class="st1" d="M714.98,340c-.8,4.51-1.3,9.09-2.43,13.51-11.73,45.88-39.93,77.06-85.35,90.29-44.98,13.1-85.29,2.02-119.89-29.45-9.57-8.7-17.14-19.06-23.3-30.43-.56-1.04-1-2.36-.9-3.51.14-1.76,1.47-2.85,3.22-3.07,1.78-.23,3.02.71,3.92,2.23,2.8,4.74,5.34,9.66,8.51,14.14,19.49,27.5,45.98,44.14,79.25,49.23,63.45,9.7,122.71-32.29,135.16-95.34.5-2.52.94-5.05,1.41-7.57h.4Z"/>
    <path class="st1" d="M691.53,298.93c2.47,7.82,3.78,15.9,4.04,24.15.77,25.24-6.49,47.92-22.36,67.58-16.84,20.85-38.71,33.34-65.24,37.2-27.84,4.05-53.24-2.51-76.16-18.76-.34-.24-.68-.49-1.01-.74-2.22-1.67-2.72-3.87-1.3-5.75,1.43-1.91,3.63-2.01,5.86-.27,38.44,29.98,92.17,27.7,127.84-5.7,17.95-16.81,28.1-37.69,30.7-62.17,1.03-9.73,1.02-20.46-2.36-35.53Z"/>
    <path class="st1" d="M658.71,277.86c7.02,8.42,11.71,18.07,14.52,28.62,9.93,37.3-8.39,76.85-43.57,94.07-16.78,8.21-34.39,10.38-52.73,7.12-.48-.09-.96-.2-1.42-.35-2.17-.69-3.26-2.63-2.67-4.73.55-1.93,2.51-3.1,4.6-2.6,7.72,1.86,15.55,2.52,23.46,1.96,18.41-1.31,34.46-8.24,47.89-20.86,15.76-14.81,23.79-33.21,24.59-54.77.62-16.61-3.96-31.79-12.9-45.72-.59-.92-1.19-1.83-1.78-2.74Z"/>
    <path class="st1" d="M643.17,291.23c6.6,8.2,10.46,17.62,11.66,27.98,3.1,26.86-10.43,51.41-34.65,63.37-.44.22-.88.43-1.33.61-1.74.68-3.39.11-4.06-1.39-.68-1.51.01-3.07,1.71-3.94,3.46-1.79,7.1-3.31,10.33-5.44,26.57-17.55,34.11-52.56,17.26-79.63-.32-.51-.6-1.03-.9-1.55Z"/>
    <path class="st1" d="M703.71,443.94c-.52-.42-1.27-.39-1.75.07-29.75,28.2-69.49,44.18-110.71,44.18-23.2,0-45.27-4.95-65.21-13.83-3.4-1.57-6.77-3.23-10.07-5.07-62.35-32.8-95.75-109-79.67-177.43.41-1.75-.72-3.47-2.5-3.74h0c-1.59-.24-3.12.78-3.46,2.35-5.08,23.08-5.27,47.26-.35,70.32,11.45,52.34,44.63,90.82,86.04,111.71,22.53,11.73,48.12,18.37,75.23,18.37,41.9,0,82.3-16.24,112.54-44.91.59-.56.55-1.51-.08-2.02h0Z"/>
    <path class="st1" d="M725.91,457.3c-.6-.49-1.47-.45-2.04.08-34.55,32.75-80.7,51.31-128.57,51.31-26.95,0-52.57-5.75-75.73-16.06-3.95-1.82-7.86-3.75-11.69-5.88-73.55-38.69-113.08-127.41-92.26-207.84.88-3.25,1.69-6.52,2.61-9.76,0-.03.01-.05.02-.07.67-1.9,3.47-10.28,4.1-11.96,1.39-3.34,3.52-8.25,4.91-11.62.01-.03.03-.06.04-.1,1.65-3.23,4.04-7.99,5.68-11.2.02-.03.03-.05.05-.08.95-1.55,5.47-9.2,6.47-10.83.97-1.44,6.27-8.96,7.19-10.35.02-.03.04-.06.06-.09,2.25-2.85,5.58-6.92,7.84-9.79.02-.03.04-.05.07-.08,2.46-2.65,6.05-6.6,8.5-9.24.02-.02.03-.03.05-.05.75-.73,3.04-2.89,5.18-4.91.33-.31.66-.63.98-.93,1.66-1.57,1.76-4.17.24-5.86l-.09-.1c-1.59-1.78-4.34-1.87-6.06-.21-.53.52-1.09,1.06-1.64,1.59-1.99,1.93-3.96,3.85-4.68,4.57-2.53,2.78-6.23,7.01-8.77,9.81-.02.03-.05.05-.07.08-2.33,3.01-5.76,7.35-8.06,10.36-.01.02-.02.03-.03.04-.97,1.41-6.24,9.28-7.33,10.89-.02.03-.04.06-.06.09l-5.26,9.09c-22.15,39.88-29.07,88.01-19.56,132.55,13.3,60.78,51.83,105.47,99.92,129.73,26.17,13.62,55.88,21.33,87.36,21.33,48.66,0,95.57-18.86,130.7-52.15.68-.65.64-1.76-.1-2.35h0Z"/>
    <path class="st1" d="M752.87,461.66c-.7-.64-1.79-.59-2.44.1-39.54,42.52-95.35,66.87-153.42,66.87-30.22,0-58.95-6.44-84.92-18.01-4.43-2.04-8.82-4.21-13.11-6.6-82.48-43.39-126.8-142.88-103.46-233.07.98-3.64,1.89-7.31,2.93-10.93.01-.04.02-.07.03-.11.76-2.16,3.89-11.52,4.6-13.4,1.56-3.75,3.94-9.25,5.51-13.03.02-.04.03-.08.05-.12,1.85-3.62,4.52-8.95,6.37-12.55.02-.04.04-.07.06-.1,1.07-1.75,6.13-10.32,7.25-12.14,1.08-1.62,7.02-10.03,8.06-11.6.03-.04.05-.07.08-.11,2.53-3.2,6.25-7.75,8.78-10.97.03-.04.05-.06.08-.1,2.76-2.97,6.78-7.4,9.52-10.35.02-.03.04-.04.07-.07,1.52-1.46,8.5-8.03,10.22-9.68.03-.03.05-.05.08-.07,14.19-12.24,30.12-23.04,46.92-31.27,2.66-1.26,3.77-4.49,2.42-7.12-1.32-2.57-4.47-3.59-7.04-2.27-17.55,8.89-34.05,20.44-48.75,33.48-.03.02-.05.04-.07.07-1.78,1.76-8.96,8.7-10.58,10.32-2.83,3.12-6.98,7.86-9.83,11-.03.03-.05.06-.08.1-2.61,3.37-6.45,8.23-9.03,11.6-.02.03-.03.04-.05.07-1.11,1.62-6.99,10.4-8.22,12.2-.02.04-.04.06-.06.1l-5.9,10.19c-24.84,44.72-32.59,98.69-21.93,148.64,14.91,68.16,58.12,118.27,112.05,145.47,29.34,15.27,62.66,23.92,97.96,23.92,59.03,0,115.77-24.75,155.96-67.97.66-.71.61-1.83-.1-2.49h0Z"/>
  </g>
</svg>